PathFileType	4	(X/Y/Z)	C:/Users/beibeiliu/ov580/test_trc/User2\sequence.21_training_dense_left.trc
DataRate	CameraRate	NumFrames	NumMarkers	Units	OrigDataRate	OrigDataStartFrame	OrigNumFrames
120	120	9	19	mm	120	242	322
Frame#	Time	ThumbCMC			ThumbMCP			ThumbIP			ThumbTip			IndexMCP			IndexPIP			IndexTip			MiddleMCP			MiddlePIP			MiddleTip			RingMCP			RingPIP			RingTip			PinkyMCP			PinkyPIP			PinkyTip			BackHand1			BackHand2			BackHand3	
		X0	Y0	Z0	X1	Y1	Z1	X2	Y2	Z2	X3	Y3	Z3	X4	Y4	Z4	X5	Y5	Z5	X6	Y6	Z6	X7	Y7	Z7	X8	Y8	Z8	X9	Y9	Z9	X10	Y10	Z10	X11	Y11	Z11	X12	Y12	Z12	X13	Y13	Z13	X14	Y14	Z14	X15	Y15	Z15	X16	Y16	Z16	X17	Y17	Z17	X18	Y18	Z18	
241	2.00833	-241.114	4.29679	46.3376	-218.328	25.6607	20.8593	-193.749	35.3491	-7.00156	-174.278	39.1475	-16.9831	-208.355	-33.6165	-18.7256	-188.299	-19.3423	-36.1231	-166.748	1.68528	-40.6403	-189.299	-48.5907	-13.0701	-169.011	-19.562	-22.1585	-182.589	3.00417	8.83742	-172.246	-53.0817	-0.25629	-155.585	-24.2647	-5.72069	-178.009	-9.88393	19.9253	-161.171	-57.3194	23.7834	-146.571	-32.4034	5.36724	-156.397	-8.84212	23.264	-206.715	-57.9882	57.0437	-219.644	-49.7948	85.5258	-238.883	-42.1225	50.3415	
242	2.01667	-244.863	0.413716	42.0073	-221.237	14.7264	16.5528	-202.142	27.3042	-11.7382	-182.172	31.416	-30.6315	-213.911	-41.3639	-22.6717	-193.449	-28.8821	-40.1684	-172.754	-9.16694	-49.0684	-193.167	-56.6777	-14.9558	-177.036	-26.2387	-25.9267	-186.57	-5.559	4.82855	-174.61	-61.6579	-0.318519	-165.732	-32.8728	-12.2219	-181.429	-17.2078	18.3323	-166.746	-63.038	19.7167	-155.095	-39.5876	-0.0482579	-164.357	-15.0577	22.4158	-210.687	-60.1244	54.5703	-221.436	-50.84	85.4886	-244.359	-46.2435	51.0782	
243	2.025	-246.187	-6.08572	42.4134	-226.67	9.48696	13.7004	-206.151	14.3099	-14.9728	-189.448	18.1821	-34.4752	-218.981	-53.4964	-19.7031	-200.875	-43.1191	-39.8426	-181.872	-24.0451	-55.9661	-199.969	-65.0693	-15.0888	-180.391	-38.1625	-26.6753	-191.874	-14.9844	5.17024	-181.509	-68.5991	0.97061	-170.587	-45.0305	-16.2337	-185.675	-25.4098	16.0951	-170.011	-69.4806	16.7787	-157.722	-46.6303	-1.63606	-169.812	-25.036	19.2316	-211.184	-65.9952	52.8029	-222.838	-55.4121	84.6516	-243.189	-51.8012	57.0451	
244	2.03333	-244.091	-8.89817	42.138	-228.689	6.54228	12.886	-209.892	9.25205	-15.5451	-191.688	9.41184	-39.8974	-225.169	-58.3752	-16.1503	-206.955	-51.4192	-38.8027	-190.091	-32.3742	-57.7347	-204.292	-71.0814	-13.7505	-183.158	-46.0317	-26.0073	-193.996	-19.9703	3.56914	-186.245	-72.5246	-1.56783	-174.097	-45.9068	-14.505	-186.03	-29.8969	16.0152	-172.382	-72.956	19.3207	-159.124	-52.4505	-1.93993	-171.814	-28.6728	19.6809	-209.117	-67.839	59.5707	-220.278	-57.9719	85.9013	-247.806	-48.6062	58.5969	
245	2.04167	-245.707	-6.60425	45.4977	-226.408	3.67453	8.94294	-210.592	7.86677	-17.1041	-192.946	6.39107	-36.1481	-225.787	-60.2331	-15.4897	-209.656	-52.5325	-39.1668	-192.531	-36.8051	-58.4393	-209.293	-72.5849	-9.13083	-187.092	-49.8971	-26.393	-195.18	-23.4177	4.31421	-189.824	-74.5793	-2.0248	-174.839	-49.6392	-13.7906	-185.611	-32.6207	13.8476	-172.661	-74.5548	21.0576	-164.518	-53.7501	-2.63266	-174.36	-30.8202	20.7207	-210.275	-69.0425	58.0798	-219.225	-55.2197	88.1915	-247.272	-49.214	60.8377	
246	2.05	-244.663	-4.8103	43.8605	-224.947	1.99811	10.2747	-210.09	5.32056	-14.7804	-193.475	3.10677	-36.5258	-228.58	-61.0789	-14.6182	-213.245	-54.8342	-39.876	-192.581	-41.065	-55.351	-212.549	-74.4773	-9.26227	-191.974	-48.7723	-26.1478	-200.083	-23.8485	0.702788	-189.946	-78.2628	2.00726	-181.302	-51.6049	-15.4769	-189.423	-35.5625	16.1838	-177.837	-75.7124	16.6146	-168.76	-51.6793	-2.12576	-175.966	-35.3277	20.0362	-214.279	-68.7762	58.0183	-218.833	-52.5764	91.3085	-246.055	-49.5418	60.16	
247	2.05833	-241.781	-4.93614	47.1392	-222.595	2.81226	16.915	-209.292	2.46827	-17.3503	-194.892	1.343	-35.7344	-237.311	-59.4375	-12.9373	-220.297	-55.194	-37.345	-201.883	-42.5563	-56.5144	-217.125	-73.5379	-8.51201	-198.166	-51.1171	-26.9371	-203.839	-24.6994	5.30918	-196.016	-78.3248	2.14073	-180.594	-54.2905	-13.4478	-191.929	-36.4538	17.4257	-180.16	-77.3881	18.8004	-172.517	-54.3095	-2.18374	-180.895	-34.7196	21.5231	-212.501	-69.5416	61.3731	-218.72	-53.8155	91.5581	-245.614	-46.2053	67.8531	
248	2.06667	-241.461	0.0624272	48.2839	-222.753	5.79066	17.6206	-209.44	6.67737	-13.6404	-194.588	1.15884	-37.3022	-240.472	-56.8258	-7.2343	-226.746	-52.8802	-36.1415	-205.366	-43.0164	-55.0492	-221.007	-72.5092	-5.83458	-203.845	-47.1277	-27.3855	-204.269	-22.4077	1.72472	-203.071	-76.2676	1.52578	-189.721	-53.778	-16.1416	-195.745	-33.558	12.2988	-186.102	-78.1862	19.3503	-175.799	-57.8707	-3.50932	-179.902	-35.2662	22.7043	-217.273	-66.2559	60.7153	-220.785	-52.2156	93.0994	-245.315	-41.1999	68.5492	
249	2.075	-239.423	2.49149	49.2261	-220.925	8.06021	17.5169	-207.749	6.43711	-16.8979	-194.938	5.01695	-37.1173	-246.572	-52.7129	-9.65236	-234.936	-49.0602	-33.6235	-216.192	-38.5668	-55.0386	-229.82	-67.0355	-5.31515	-208.243	-48.059	-26.5219	-204.812	-22.1601	5.63929	-209.61	-74.5804	-0.0153367	-193.787	-51.2014	-16.3323	-199.309	-33.4462	16.3871	-195.678	-80.5371	16.8738	-181.74	-64.4176	-7.84848	-179.887	-37.2179	12.9416	-219.168	-68.0438	63.4007	-220.041	-49.6246	92.5816	-249.71	-36.6888	71.3621	
